<svg width="174" height="42" viewBox="0 0 174 42" fill="none" xmlns="http://www.w3.org/2000/svg">
<path d="M4.512 35.488L1.184 33.968L14.72 5.936L18.016 7.488L4.512 35.488Z" fill="#C778DD"/>
<path d="M31.328 14.576C32.8213 14.576 34.016 14.944 34.912 15.68C35.8187 16.4053 36.4747 17.4347 36.88 18.768C37.296 20.1013 37.504 21.6747 37.504 23.488C37.504 25.2267 37.2533 26.7733 36.752 28.128C36.2507 29.4827 35.5147 30.5493 34.544 31.328C33.584 32.096 32.4 32.48 30.992 32.48C29.264 32.48 27.8667 31.8667 26.8 30.64V38.528L22.576 38.976V15.056H26.288L26.512 17.12C27.184 16.2453 27.936 15.6053 28.768 15.2C29.6 14.784 30.4533 14.576 31.328 14.576ZM30.096 17.744C29.3813 17.744 28.752 17.9573 28.208 18.384C27.6747 18.8107 27.2053 19.3387 26.8 19.968V27.552C27.184 28.128 27.6213 28.56 28.112 28.848C28.6027 29.136 29.1573 29.28 29.776 29.28C30.8533 29.28 31.6747 28.832 32.24 27.936C32.816 27.0293 33.104 25.5627 33.104 23.536C33.104 22.1067 32.9867 20.9707 32.752 20.128C32.528 19.2747 32.192 18.6667 31.744 18.304C31.296 17.9307 30.7467 17.744 30.096 17.744ZM41.9235 32V29.072H44.3075V17.968H41.9235V15.056H47.5235L48.3075 18.944C48.9262 17.504 49.7048 16.4213 50.6435 15.696C51.5822 14.96 52.7608 14.592 54.1795 14.592C54.7235 14.592 55.2035 14.6347 55.6195 14.72C56.0462 14.8053 56.4515 14.9173 56.8355 15.056L55.5715 18.608C55.2408 18.5227 54.9262 18.4587 54.6275 18.416C54.3288 18.3627 53.9928 18.336 53.6195 18.336C52.4462 18.336 51.4222 18.7947 50.5475 19.712C49.6835 20.6187 49.0115 21.8507 48.5315 23.408V29.072H51.9075V32H41.9235ZM53.2675 21.664V17.168L53.8435 15.056H56.8355L56.0835 21.664H53.2675ZM67.991 14.576C69.6763 14.576 71.1057 14.944 72.279 15.68C73.4523 16.416 74.343 17.456 74.951 18.8C75.5697 20.1333 75.879 21.696 75.879 23.488C75.879 25.3227 75.5697 26.912 74.951 28.256C74.3323 29.6 73.4363 30.64 72.263 31.376C71.0897 32.112 69.6603 32.48 67.975 32.48C66.3003 32.48 64.871 32.1227 63.687 31.408C62.5137 30.6827 61.6177 29.6533 60.999 28.32C60.3803 26.976 60.071 25.376 60.071 23.52C60.071 21.7493 60.3803 20.192 60.999 18.848C61.6177 17.504 62.519 16.4587 63.703 15.712C64.887 14.9547 66.3163 14.576 67.991 14.576ZM67.991 17.76C66.807 17.76 65.9217 18.224 65.335 19.152C64.759 20.08 64.471 21.536 64.471 23.52C64.471 25.5253 64.759 26.992 65.335 27.92C65.911 28.8373 66.791 29.296 67.975 29.296C69.159 29.296 70.039 28.8373 70.615 27.92C71.191 26.992 71.479 25.5147 71.479 23.488C71.479 21.5147 71.191 20.0693 70.615 19.152C70.039 18.224 69.1643 17.76 67.991 17.76ZM92.3785 15.056V27.856C92.3785 30.1067 91.9305 31.968 91.0345 33.44C90.1492 34.912 88.8425 36.0853 87.1145 36.96C85.3865 37.8347 83.2692 38.5067 80.7625 38.976L80.0745 35.744C81.7812 35.392 83.2318 34.928 84.4265 34.352C85.6318 33.776 86.5545 32.992 87.1945 32C87.8345 31.008 88.1545 29.7173 88.1545 28.128V18.048H81.7225V15.056H92.3785ZM89.3705 6.512C90.1385 6.512 90.7678 6.752 91.2585 7.232C91.7492 7.712 91.9945 8.30933 91.9945 9.024C91.9945 9.73867 91.7492 10.3413 91.2585 10.832C90.7678 11.312 90.1385 11.552 89.3705 11.552C88.5918 11.552 87.9572 11.312 87.4665 10.832C86.9758 10.3413 86.7305 9.73867 86.7305 9.024C86.7305 8.30933 86.9758 7.712 87.4665 7.232C87.9572 6.752 88.5918 6.512 89.3705 6.512ZM102.926 24.816C103.011 25.872 103.251 26.7307 103.646 27.392C104.051 28.0533 104.569 28.5387 105.198 28.848C105.827 29.1573 106.526 29.312 107.294 29.312C108.105 29.312 108.867 29.184 109.582 28.928C110.297 28.672 111.001 28.3147 111.694 27.856L113.454 30.272C112.665 30.9333 111.721 31.4667 110.622 31.872C109.534 32.2773 108.334 32.48 107.022 32.48C105.187 32.48 103.641 32.1013 102.382 31.344C101.134 30.5867 100.19 29.536 99.55 28.192C98.91 26.848 98.59 25.3013 98.59 23.552C98.59 21.8667 98.9047 20.3467 99.534 18.992C100.163 17.6373 101.07 16.5653 102.254 15.776C103.438 14.976 104.867 14.576 106.542 14.576C108.099 14.576 109.443 14.9173 110.574 15.6C111.705 16.2827 112.579 17.264 113.198 18.544C113.817 19.8133 114.126 21.344 114.126 23.136C114.126 23.424 114.115 23.7173 114.094 24.016C114.083 24.3147 114.067 24.5813 114.046 24.816H102.926ZM106.558 17.552C105.534 17.552 104.691 17.92 104.03 18.656C103.379 19.3813 102.995 20.5333 102.878 22.112H110.014C109.993 20.6827 109.694 19.568 109.118 18.768C108.553 17.9573 107.699 17.552 106.558 17.552ZM127.042 29.088C127.788 29.088 128.487 28.9493 129.138 28.672C129.799 28.3947 130.434 28.0427 131.042 27.616L132.962 30.32C132.215 30.9493 131.314 31.4667 130.258 31.872C129.202 32.2773 128.071 32.48 126.866 32.48C125.095 32.48 123.575 32.112 122.306 31.376C121.047 30.6293 120.076 29.5947 119.394 28.272C118.722 26.9387 118.386 25.392 118.386 23.632C118.386 21.8933 118.727 20.3413 119.41 18.976C120.103 17.6 121.084 16.5227 122.354 15.744C123.634 14.9653 125.159 14.576 126.93 14.576C128.146 14.576 129.244 14.752 130.226 15.104C131.218 15.4453 132.124 15.9573 132.946 16.64L131.074 19.232C130.444 18.7947 129.794 18.464 129.122 18.24C128.46 18.0053 127.772 17.888 127.058 17.888C125.81 17.888 124.791 18.3413 124.002 19.248C123.223 20.144 122.834 21.6053 122.834 23.632C122.834 24.9653 123.015 26.032 123.378 26.832C123.751 27.632 124.252 28.208 124.882 28.56C125.522 28.912 126.242 29.088 127.042 29.088ZM152.325 31.056C151.696 31.472 150.933 31.8133 150.037 32.08C149.141 32.3467 148.17 32.48 147.125 32.48C145.056 32.48 143.498 31.9467 142.453 30.88C141.408 29.8027 140.885 28.3733 140.885 26.592V18.048H137.205V15.056H140.885V11.328L145.109 10.816V15.056H150.709L150.277 18.048H145.109V26.576C145.109 27.4507 145.322 28.0907 145.749 28.496C146.176 28.9013 146.864 29.104 147.813 29.104C148.421 29.104 148.976 29.0347 149.477 28.896C149.989 28.7467 150.453 28.56 150.869 28.336L152.325 31.056ZM163.337 29.36C164.329 29.36 165.123 29.1893 165.721 28.848C166.329 28.496 166.633 28.0053 166.633 27.376C166.633 26.96 166.531 26.608 166.329 26.32C166.137 26.032 165.753 25.7653 165.177 25.52C164.601 25.264 163.737 24.9813 162.585 24.672C161.497 24.3947 160.542 24.0533 159.721 23.648C158.91 23.232 158.275 22.6987 157.817 22.048C157.369 21.3973 157.145 20.576 157.145 19.584C157.145 18.592 157.422 17.7227 157.977 16.976C158.531 16.2187 159.331 15.632 160.377 15.216C161.433 14.7893 162.702 14.576 164.185 14.576C165.635 14.576 166.905 14.768 167.993 15.152C169.081 15.5253 170.014 15.9947 170.793 16.56L169.065 19.136C168.382 18.6987 167.641 18.3467 166.841 18.08C166.051 17.8027 165.198 17.664 164.281 17.664C163.289 17.664 162.563 17.808 162.105 18.096C161.657 18.384 161.433 18.784 161.433 19.296C161.433 19.6587 161.545 19.968 161.769 20.224C162.003 20.4693 162.419 20.7093 163.017 20.944C163.625 21.168 164.489 21.44 165.609 21.76C166.707 22.0587 167.662 22.4107 168.473 22.816C169.294 23.2213 169.929 23.76 170.377 24.432C170.825 25.104 171.049 25.984 171.049 27.072C171.049 28.2987 170.691 29.312 169.977 30.112C169.262 30.912 168.318 31.5093 167.145 31.904C165.982 32.288 164.718 32.48 163.352 32.48C161.753 32.48 160.355 32.2507 159.161 31.792C157.966 31.3333 156.953 30.7413 156.121 30.016L158.312 27.552C158.974 28.0747 159.726 28.5067 160.569 28.848C161.422 29.1893 162.345 29.36 163.337 29.36Z" fill="white"/>
</svg>
